<svg width="168" height="60" viewBox="0 0 168 60" fill="none" xmlns="http://www.w3.org/2000/svg">
<path d="M1.68 37H1.2L13.16 9L13.6 8.8L23.68 37H20.28L17.16 28.2H5.48L1.68 37ZM11.92 13.32L5.64 27.8H17.04L11.92 13.32ZM25.6922 9.32C28.7855 9.10666 31.5189 9 33.8922 9C40.4789 9 43.7722 11.2 43.7722 15.6C43.7722 17.4667 43.3189 19.1333 42.4122 20.6C41.5055 22.0667 39.9455 23.04 37.7322 23.52L45.7322 37H42.0122L34.1722 23.76H29.0122V37H25.6922V9.32ZM33.8922 9.4C32.3455 9.4 30.7189 9.49333 29.0122 9.68V23.36H34.9322C38.6922 23.2 40.5722 20.64 40.5722 15.68C40.5722 13.6533 40.0122 12.1067 38.8922 11.04C37.7722 9.94666 36.1055 9.4 33.8922 9.4ZM78.5038 37.16C73.5171 37.16 69.8238 35.7467 67.4238 32.92C66.5704 31.9067 65.8771 30.56 65.3438 28.88C64.8104 27.2 64.5438 25.16 64.5438 22.76C64.5438 20.36 64.9304 18.2133 65.7038 16.32C66.5038 14.4 67.5838 12.92 68.9438 11.88C71.5838 9.93333 74.7704 8.96 78.5038 8.96C79.5704 8.96 80.6104 9.05333 81.6238 9.24C82.6371 9.4 83.3971 9.57333 83.9038 9.76L84.6238 10.04L84.5038 10.44C82.6904 9.72 80.6904 9.36 78.5038 9.36C75.6771 9.36 73.3171 10.28 71.4238 12.12C69.9838 13.48 68.9704 15.48 68.3838 18.12C68.0371 19.6133 67.8638 21.44 67.8638 23.6C67.8638 25.76 68.1704 27.76 68.7838 29.6C69.3971 31.4133 70.0904 32.76 70.8638 33.64C71.6638 34.52 72.6238 35.2267 73.7438 35.76C74.8638 36.2667 75.7571 36.56 76.4238 36.64C77.0904 36.72 77.8904 36.76 78.8238 36.76C79.7838 36.76 80.8638 36.6667 82.0638 36.48C83.2638 36.2933 84.1704 36.12 84.7838 35.96L85.7038 35.68L85.8238 36.08C83.7971 36.8 81.3571 37.16 78.5038 37.16ZM87.3112 37H86.8312L98.7912 9L99.2312 8.8L109.311 37H105.911L102.791 28.2H91.1112L87.3112 37ZM97.5512 13.32L91.2712 27.8H102.671L97.5512 13.32ZM114.523 9.04C115.697 8.98666 116.843 8.96 117.963 8.96C119.11 8.96 120.31 9.08 121.563 9.32C122.843 9.56 124.097 10.0133 125.323 10.68C126.577 11.32 127.63 12.16 128.483 13.2C129.363 14.2133 130.07 15.56 130.603 17.24C131.137 18.92 131.403 20.96 131.403 23.36C131.403 25.76 131.003 27.92 130.203 29.84C129.43 31.7333 128.363 33.1867 127.003 34.2C124.363 36.1733 121.177 37.16 117.443 37.16C116.137 37.16 114.763 37.1067 113.323 37H111.323V9.04H114.523ZM114.643 36.68C115.203 36.7333 115.91 36.76 116.763 36.76C117.617 36.76 118.257 36.7467 118.683 36.72C119.11 36.6933 119.697 36.5867 120.443 36.4C121.19 36.1867 121.883 35.9067 122.523 35.56C123.163 35.2133 123.83 34.7067 124.523 34.04C125.243 33.3467 125.857 32.5333 126.363 31.6C127.51 29.4133 128.083 26.56 128.083 23.04C128.083 20.5333 127.777 18.3733 127.163 16.56C126.55 14.72 125.843 13.36 125.043 12.48C124.27 11.6 123.323 10.9067 122.203 10.4C121.083 9.86666 120.19 9.56 119.523 9.48C118.857 9.4 118.083 9.36 117.203 9.36C116.323 9.36 115.47 9.4 114.643 9.48V36.68ZM133.825 9.4V9H140.945V9.4H138.985V36.6H140.945V37H133.825V36.6H135.665V9.4H133.825ZM143.449 37H142.969L154.929 9L155.369 8.8L165.449 37H162.049L158.929 28.2H147.249L143.449 37ZM153.689 13.32L147.409 27.8H158.809L153.689 13.32Z" fill="#FCFCFC"/>
<path d="M55.9744 37H52.6544V9.4H45.7344V9H62.9344V9.4H55.9744V37Z" fill="#BB4745"/>
<path d="M54.576 53.596C51.584 53.596 49.368 52.748 47.928 51.052C47.416 50.444 47 49.636 46.68 48.628C46.36 47.62 46.2 46.396 46.2 44.956C46.2 43.516 46.432 42.228 46.896 41.092C47.376 39.94 48.024 39.052 48.84 38.428C50.424 37.26 52.336 36.676 54.576 36.676C55.296 36.676 56 36.732 56.688 36.844C57.376 36.94 57.888 37.044 58.224 37.156L58.728 37.324L58.656 37.564C57.408 37.132 56.048 36.916 54.576 36.916C52.88 36.916 51.464 37.468 50.328 38.572C49.464 39.388 48.856 40.588 48.504 42.172C48.296 43.068 48.192 44.164 48.192 45.46C48.192 46.756 48.376 47.956 48.744 49.06C49.112 50.148 49.528 50.956 49.992 51.484C50.472 52.012 51.048 52.436 51.72 52.756C52.392 53.06 52.928 53.236 53.328 53.284C53.728 53.332 54.2 53.356 54.744 53.356C55.304 53.356 56.048 53.292 56.976 53.164V48.22H54.072V47.98H60V48.22H58.968V52.948C57.752 53.38 56.288 53.596 54.576 53.596Z" fill="#BB4745"/>
<path d="M60.504 53H60.36L63.948 44.6L64.08 44.54L67.104 53H66.084L65.148 50.36H61.644L60.504 53ZM63.576 45.896L61.692 50.24H65.112L63.576 45.896ZM72.2677 53H67.7077V44.6H68.7037V52.88H72.2677V53ZM77.5533 53H72.9933V44.6H73.9893V52.88H77.5533V53ZM83.0549 44.6V44.72H79.2749V48.32H82.7789V48.44H79.2749V52.88H83.3189V53H78.2789V44.6H83.0549ZM84.1036 44.696C85.0316 44.632 85.8516 44.6 86.5636 44.6C88.5396 44.6 89.5276 45.26 89.5276 46.58C89.5276 47.14 89.3916 47.64 89.1196 48.08C88.8476 48.52 88.3796 48.812 87.7156 48.956L90.1156 53H88.9996L86.6476 49.028H85.0996V53H84.1036V44.696ZM86.5636 44.72C86.0996 44.72 85.6116 44.748 85.0996 44.804V48.908H86.8756C88.0036 48.86 88.5676 48.092 88.5676 46.604C88.5676 45.996 88.3996 45.532 88.0636 45.212C87.7276 44.884 87.2276 44.72 86.5636 44.72ZM95.5643 44.6C95.7163 44.752 95.7923 44.948 95.7923 45.188C95.7923 45.388 95.7483 45.592 95.6603 45.8L93.5123 50.156V53H92.5163V50.42L90.1163 44.6H91.1363L93.4283 50.012L95.5163 45.8C95.6043 45.6 95.6483 45.392 95.6483 45.176C95.6483 44.96 95.5883 44.792 95.4683 44.672L95.5643 44.6Z" fill="#BB4745"/>
</svg>
