<svg width="179" height="64" viewBox="0 0 179 64" fill="none" xmlns="http://www.w3.org/2000/svg">
<path d="M5.88 34.6L7.08 31.4H19.48L20.68 34.6H5.88ZM13.2 21.32L8.48 32.44L8.16 33.16L4 43H0.2L13.2 13.6L26.2 43H22.4L18.32 33.4L18 32.6L13.2 21.32ZM33.0063 29.2H36.8063L46.8063 43H42.6063L33.0063 29.2ZM28.0062 15H31.4062V43H28.0062V15ZM29.8862 18V15H35.6063C37.4196 15 39.0329 15.3467 40.4463 16.04C41.8863 16.7067 43.0196 17.6667 43.8463 18.92C44.6996 20.1733 45.1263 21.6667 45.1263 23.4C45.1263 25.1067 44.6996 26.6 43.8463 27.88C43.0196 29.1333 41.8863 30.1067 40.4463 30.8C39.0329 31.4667 37.4196 31.8 35.6063 31.8H29.8862V28.8H35.6063C36.8063 28.8 37.8596 28.5867 38.7662 28.16C39.6996 27.7333 40.4196 27.12 40.9263 26.32C41.4596 25.52 41.7262 24.5467 41.7262 23.4C41.7262 22.2533 41.4596 21.28 40.9263 20.48C40.4196 19.68 39.6996 19.0667 38.7662 18.64C37.8596 18.2133 36.8063 18 35.6063 18H29.8862ZM65.7906 29C65.7906 31.16 66.2706 33.0667 67.2306 34.72C68.2173 36.3733 69.4973 37.6667 71.0706 38.6C72.644 39.5333 74.3506 40 76.1906 40C77.524 40 78.7373 39.8267 79.8306 39.48C80.9506 39.1333 81.964 38.6533 82.8706 38.04C83.7773 37.4 84.5506 36.6667 85.1906 35.84V40.32C84.0173 41.36 82.7373 42.1333 81.3506 42.64C79.964 43.1467 78.244 43.4 76.1906 43.4C74.244 43.4 72.4173 43.0533 70.7106 42.36C69.0306 41.64 67.5506 40.64 66.2706 39.36C64.9906 38.0533 63.9906 36.52 63.2706 34.76C62.5506 33 62.1906 31.08 62.1906 29C62.1906 26.92 62.5506 25 63.2706 23.24C63.9906 21.48 64.9906 19.96 66.2706 18.68C67.5506 17.3733 69.0306 16.3733 70.7106 15.68C72.4173 14.96 74.244 14.6 76.1906 14.6C78.244 14.6 79.964 14.8533 81.3506 15.36C82.7373 15.8667 84.0173 16.64 85.1906 17.68V22.16C84.5506 21.3333 83.7773 20.6133 82.8706 20C81.964 19.36 80.9506 18.8667 79.8306 18.52C78.7373 18.1733 77.524 18 76.1906 18C74.3506 18 72.644 18.4667 71.0706 19.4C69.4973 20.3333 68.2173 21.6267 67.2306 23.28C66.2706 24.9067 65.7906 26.8133 65.7906 29ZM91.6675 34.6L92.8675 31.4H105.267L106.467 34.6H91.6675ZM98.9875 21.32L94.2675 32.44L93.9475 33.16L89.7875 43H85.9875L98.9875 13.6L111.987 43H108.187L104.107 33.4L103.787 32.6L98.9875 21.32ZM113.794 15H117.194V43H113.794V15ZM122.194 43H115.674V39.6H122.194C123.767 39.6 125.207 39.36 126.514 38.88C127.82 38.3733 128.94 37.6667 129.874 36.76C130.807 35.8267 131.527 34.7067 132.034 33.4C132.54 32.0933 132.794 30.6267 132.794 29C132.794 27.3733 132.54 25.9067 132.034 24.6C131.527 23.2933 130.807 22.1867 129.874 21.28C128.94 20.3467 127.82 19.64 126.514 19.16C125.207 18.6533 123.767 18.4 122.194 18.4H115.674V15H122.194C124.914 15 127.327 15.5867 129.434 16.76C131.54 17.9333 133.194 19.5733 134.394 21.68C135.594 23.76 136.194 26.2 136.194 29C136.194 31.8 135.594 34.2533 134.394 36.36C133.194 38.44 131.54 40.0667 129.434 41.24C127.327 42.4133 124.914 43 122.194 43ZM139.381 15H142.781V43H139.381V15ZM150.266 34.6L151.466 31.4H163.866L165.066 34.6H150.266ZM157.586 21.32L152.866 32.44L152.546 33.16L148.386 43H144.586L157.586 13.6L170.586 43H166.786L162.706 33.4L162.386 32.6L157.586 21.32Z" fill="#FCFCFC"/>
<path d="M45.9891 18.2V15H63.7891V18.2H56.5891V43H53.1891V18.2H45.9891Z" fill="#BB4745"/>
<path d="M54.72 52.4332V50.5132H62.52C62.52 51.6812 62.344 52.7932 61.992 53.8492C61.64 54.8892 61.12 55.8172 60.432 56.6332C59.744 57.4492 58.896 58.0972 57.888 58.5772C56.896 59.0412 55.76 59.2732 54.48 59.2732C53.264 59.2732 52.136 59.0652 51.096 58.6492C50.056 58.2172 49.152 57.6172 48.384 56.8492C47.616 56.0652 47.016 55.1452 46.584 54.0892C46.168 53.0332 45.96 51.8812 45.96 50.6332C45.96 49.3852 46.168 48.2332 46.584 47.1772C47.016 46.1212 47.616 45.2092 48.384 44.4412C49.152 43.6572 50.056 43.0572 51.096 42.6412C52.136 42.2092 53.264 41.9932 54.48 41.9932C55.52 41.9932 56.472 42.1292 57.336 42.4012C58.216 42.6732 59 43.0732 59.688 43.6012C60.392 44.1292 60.984 44.7852 61.464 45.5692L60.024 46.8892C59.496 45.9932 58.76 45.2972 57.816 44.8012C56.872 44.2892 55.76 44.0332 54.48 44.0332C53.296 44.0332 52.224 44.3132 51.264 44.8732C50.304 45.4332 49.536 46.2092 48.96 47.2012C48.4 48.1772 48.12 49.3212 48.12 50.6332C48.12 51.9292 48.4 53.0732 48.96 54.0652C49.536 55.0572 50.304 55.8332 51.264 56.3932C52.224 56.9532 53.296 57.2332 54.48 57.2332C55.312 57.2332 56.056 57.1132 56.712 56.8732C57.384 56.6172 57.96 56.2652 58.44 55.8172C58.92 55.3692 59.312 54.8572 59.616 54.2812C59.936 53.7052 60.168 53.0892 60.312 52.4332H54.72Z" fill="#BB4745"/>
<path d="M63.764 56.9312L64.124 55.9712H67.844L68.204 56.9312H63.764ZM65.96 52.9472L64.544 56.2832L64.448 56.4992L63.2 59.4512H62.06L65.96 50.6312L69.86 59.4512H68.72L67.496 56.5712L67.4 56.3312L65.96 52.9472ZM70.4019 51.0512H71.4219V58.4912H74.7219V59.4512H70.4019V51.0512ZM75.3242 51.0512H76.3442V58.4912H79.6442V59.4512H75.3242V51.0512ZM80.8106 59.4512V58.4912H85.0466V59.4512H80.8106ZM80.8106 52.0112V51.0512H85.0466V52.0112H80.8106ZM80.8106 55.3712V54.4112H84.8066V55.3712H80.8106ZM80.2466 51.0512H81.2666V59.4512H80.2466V51.0512ZM87.8642 55.3112H89.0042L92.0042 59.4512H90.7442L87.8642 55.3112ZM86.3642 51.0512H87.3842V59.4512H86.3642V51.0512ZM86.9282 51.9512V51.0512H88.6442C89.1882 51.0512 89.6722 51.1552 90.0962 51.3632C90.5282 51.5632 90.8682 51.8512 91.1162 52.2272C91.3722 52.6032 91.5002 53.0512 91.5002 53.5712C91.5002 54.0832 91.3722 54.5312 91.1162 54.9152C90.8682 55.2912 90.5282 55.5832 90.0962 55.7912C89.6722 55.9912 89.1882 56.0912 88.6442 56.0912H86.9282V55.1912H88.6442C89.0042 55.1912 89.3202 55.1272 89.5922 54.9992C89.8722 54.8712 90.0882 54.6872 90.2402 54.4472C90.4002 54.2072 90.4802 53.9152 90.4802 53.5712C90.4802 53.2272 90.4002 52.9352 90.2402 52.6952C90.0882 52.4552 89.8722 52.2712 89.5922 52.1432C89.3202 52.0152 89.0042 51.9512 88.6442 51.9512H86.9282ZM97.1711 51.0512H98.3111L95.5151 55.8272V59.4512H94.4951V55.8392L91.6991 51.0512H92.8391L94.9991 54.9392L97.1711 51.0512Z" fill="#BB4745"/>
</svg>
